HIERARCHY
ROOT root
{
	OFFSET 0.000000 0.000000 0.000000
	CHANNELS 6 Xposition Yposition Zposition Zrotation Yrotation Xrotation
	JOINT lhip
	{
		OFFSET 0.058581 -0.082280 -0.017664
		CHANNELS 3 Zrotation Yrotation Xrotation
		JOINT lknee
		{
			OFFSET 0.043451 -0.386469 0.008037
			CHANNELS 3 Zrotation Yrotation Xrotation
			JOINT lankle
			{
				OFFSET -0.014790 -0.426874 -0.037428
				CHANNELS 3 Zrotation Yrotation Xrotation
				JOINT ltoe
				{
					OFFSET 0.041054 -0.060286 0.122042
					CHANNELS 3 Zrotation Yrotation Xrotation
					End Site
					{
						OFFSET 0.000000 0.000000 0.000000
					}
				}
			}
		}
	}
	JOINT rhip
	{
		OFFSET -0.060310 -0.090513 -0.013543
		CHANNELS 3 Zrotation Yrotation Xrotation
		JOINT rknee
		{
			OFFSET -0.043257 -0.383688 -0.004843
			CHANNELS 3 Zrotation Yrotation Xrotation
			JOINT rankle
			{
				OFFSET 0.019056 -0.420046 -0.034562
				CHANNELS 3 Zrotation Yrotation Xrotation
				JOINT rtoe
				{
					OFFSET -0.034840 -0.062106 0.130323
					CHANNELS 3 Zrotation Yrotation Xrotation
					End Site
					{
						OFFSET 0.000000 0.000000 0.000000
					}
				}
			}
		}
	}
	JOINT lowerback
	{
		OFFSET 0.004439 0.124404 -0.038385
		CHANNELS 3 Zrotation Yrotation Xrotation
		JOINT upperback
		{
			OFFSET 0.004488 0.137956 0.026820
			CHANNELS 3 Zrotation Yrotation Xrotation
			JOINT chest
			{
				OFFSET -0.002265 0.056032 0.002855
				CHANNELS 3 Zrotation Yrotation Xrotation
				JOINT lowerneck
				{
					OFFSET -0.013390 0.211636 -0.033468
					CHANNELS 3 Zrotation Yrotation Xrotation
					JOINT upperneck
					{
						OFFSET 0.010113 0.088937 0.050410
						CHANNELS 3 Zrotation Yrotation Xrotation
						End Site
						{
							OFFSET 0.000000 0.000000 0.000000
						}
					}
				}
				JOINT lclavicle
				{
					OFFSET 0.071702 0.114000 -0.018898
					CHANNELS 3 Zrotation Yrotation Xrotation
					JOINT lshoulder
					{
						OFFSET 0.122921 0.045205 -0.019046
						CHANNELS 3 Zrotation Yrotation Xrotation
						JOINT lelbow
						{
							OFFSET 0.255332 -0.015649 -0.022946
							CHANNELS 3 Zrotation Yrotation Xrotation
							JOINT lwrist
							{
								OFFSET 0.265709 0.012698 -0.007375
								CHANNELS 3 Zrotation Yrotation Xrotation
								End Site
								{
									OFFSET 0.000000 0.000000 0.000000
								}
							}
						}
					}
				}
				JOINT rclavicle
				{
					OFFSET -0.082954 0.112472 -0.023707
					CHANNELS 3 Zrotation Yrotation Xrotation
					JOINT rshoulder
					{
						OFFSET -0.113228 0.046853 -0.008472
						CHANNELS 3 Zrotation Yrotation Xrotation
						JOINT relbow
						{
							OFFSET -0.260127 -0.014369 -0.031269
							CHANNELS 3 Zrotation Yrotation Xrotation
							JOINT rwrist
							{
								OFFSET -0.269108 0.006794 -0.006027
								CHANNELS 3 Zrotation Yrotation Xrotation
								End Site
								{
									OFFSET 0.000000 0.000000 0.000000
								}
							}
						}
					}
				}
			}
		}
	}
}
MOTION
Frames: 17
Frame Time: 0.033333
0.170833 0.430109 0.998729 5.418734 -0.339697 85.903600 -2.121959 -2.932415 -2.108501 -3.869571 -7.562115 14.033346 1.331391 8.842621 -18.534536 0.000000 -0.000000 0.000000 4.209751 -0.399700 -1.714721 -0.220088 -2.853187 13.443107 -0.292673 -9.465134 -17.891678 0.000000 -0.000000 0.000000 0.265269 2.138882 13.425409 1.544867 -0.480400 0.754398 1.488378 -1.039917 2.390195 3.606928 13.360970 -12.581773 -1.574142 7.470280 5.838473 -32.650478 1.255863 0.342922 -58.873988 -3.390591 10.838845 16.480480 -36.191162 -3.152261 7.860533 -5.099363 -11.271649 30.866697 0.823932 1.690406 54.717885 2.676020 13.818014 -21.388350 29.026993 -10.199971 -0.232267 4.451915 -5.188653 
0.170051 0.427673 0.998195 5.140508 0.088552 85.676666 -1.892976 -2.706680 -1.009988 -3.136948 -7.201002 12.722568 2.346126 9.218336 -16.589494 0.000000 -0.000000 0.000000 4.712655 -0.393999 -1.362705 -0.231905 -2.997646 13.547349 -0.461014 -9.197981 -18.044338 0.000000 -0.000000 0.000000 0.518147 1.938852 13.061095 1.633420 -0.320723 0.841075 1.525726 -0.955527 2.267163 3.762275 13.290129 -12.252366 -1.633845 7.681569 6.109624 -32.726444 1.485475 0.227931 -58.961934 -3.028864 10.963113 16.464108 -36.073851 -2.797203 7.475465 -4.906471 -11.210217 30.775754 0.899939 1.749235 54.699848 2.573823 13.874995 -21.417511 29.039586 -9.926768 -0.049194 4.408126 -5.344447 
0.169810 0.424499 0.997401 5.055327 0.247893 85.245929 -1.658610 -2.200420 0.527742 -2.938561 -7.274336 10.794812 3.087552 9.096077 -15.469209 0.000000 -0.000000 0.000000 4.953765 -0.336981 -0.701919 -0.257431 -2.877158 13.487414 -0.622413 -9.317769 -18.131194 0.000000 -0.000000 0.000000 0.384229 1.709919 12.881310 1.722967 -0.155174 0.888674 1.650145 -0.941691 2.200225 3.907786 13.073861 -11.848330 -1.642736 7.646684 6.416656 -32.666725 1.759190 0.219683 -58.930243 -2.857027 10.983813 16.013384 -36.030594 -2.165231 7.014125 -4.731155 -11.153348 30.693805 0.825753 1.648172 54.703848 2.462945 13.989208 -21.217153 29.251384 -9.844784 0.143845 4.322699 -5.672979 
0.169113 0.422209 0.996531 4.926252 0.443092 85.107551 -1.186925 -1.349635 1.378923 -3.038149 -7.555448 9.612975 3.111121 8.887562 -15.460305 0.000000 -0.000000 0.000000 5.272790 -0.161426 -0.798648 -0.298996 -2.870729 14.144229 -0.712297 -9.419760 -18.504406 0.000000 -0.000000 0.000000 0.055337 1.395555 12.329837 1.912271 -0.053276 0.978577 1.745221 -0.824171 2.170539 4.190660 13.242129 -11.445303 -1.912715 7.377577 6.783161 -32.819273 2.071281 0.113394 -58.712806 -2.870989 10.838221 15.736510 -35.532885 -1.825805 6.903871 -4.665036 -10.825251 31.017591 0.545001 1.379087 54.820109 2.685394 14.023610 -21.450903 29.047633 -9.901804 -0.105851 4.284760 -5.227992 
0.169234 0.421160 0.996272 5.182954 0.396772 84.952943 -1.244095 -1.211119 1.778812 -2.978632 -7.738004 9.230143 3.062017 8.742616 -15.431588 0.000000 -0.000000 0.000000 5.241081 -0.072854 -0.503358 -0.333728 -2.999451 14.064668 -0.743888 -9.572888 -18.570086 0.000000 -0.000000 0.000000 -0.152477 1.198644 12.315437 1.924358 -0.211441 0.854049 1.754953 -0.997867 2.081964 4.186909 13.334424 -11.389798 -2.060480 7.390279 7.195971 -32.855651 2.129653 0.125415 -58.625937 -2.743278 10.711692 15.843531 -35.134524 -1.897003 6.791397 -4.702352 -10.661286 31.219269 0.460725 1.293045 54.889609 2.729620 14.151885 -21.456959 29.038597 -9.962457 -0.013609 4.298120 -5.373444 
0.168730 0.419775 0.996135 5.122749 0.622931 84.990449 -1.001848 -1.186932 1.904127 -2.909376 -7.640133 9.003330 2.994698 8.635231 -15.524768 0.000000 -0.000000 0.000000 5.630997 -0.350664 -0.586887 -0.554255 -2.849549 14.183805 -0.659276 -9.407618 -18.729493 0.000000 -0.000000 0.000000 -0.074875 1.283207 11.847790 2.033667 -0.458081 0.961073 1.663937 -1.091521 2.183897 3.902450 13.701282 -11.536678 -2.356764 7.369015 7.271029 -32.678101 2.145472 -0.019033 -58.580175 -2.773947 10.744399 15.720700 -34.568024 -1.818536 7.340706 -4.639159 -10.818493 31.297354 0.285655 1.024370 55.388471 2.987723 14.327960 -21.691171 28.806427 -9.896056 -0.150374 4.405483 -5.628208 
0.168597 0.418025 0.996255 4.882908 0.755550 84.925995 -0.876681 -1.138676 2.241654 -2.847633 -7.586048 8.664664 2.915296 8.701030 -15.587458 0.000000 -0.000000 0.000000 5.783217 -0.365060 -0.464377 -0.526997 -2.708383 14.200514 -0.774152 -9.278943 -18.969430 0.000000 -0.000000 0.000000 0.058713 1.256781 11.524333 1.930581 -0.502624 0.918871 1.564317 -1.144839 2.143229 3.558388 13.915715 -11.345725 -2.633223 7.590431 7.400661 -32.436854 2.148252 0.001870 -58.640011 -2.668618 10.571992 15.750734 -33.891278 -1.756822 7.488152 -4.686169 -10.637085 31.186847 0.274055 1.109638 55.890539 2.956728 14.468195 -21.540516 28.803346 -9.618422 -0.242015 4.561077 -5.919176 
0.168486 0.415980 0.996329 4.414566 0.816215 84.849374 -0.740450 -0.919626 2.649088 -2.897280 -7.541662 8.313978 2.882421 8.804078 -15.727096 0.000000 -0.000000 0.000000 5.838726 -0.344586 -0.285240 -0.449069 -2.509775 14.243978 -0.625956 -9.167368 -19.509561 0.000000 -0.000000 0.000000 0.057887 1.268916 11.071327 1.847737 -0.428828 1.106590 1.489400 -1.094957 2.063806 3.176627 14.213319 -11.155897 -2.895471 7.858382 7.408735 -32.362235 2.141495 -0.003690 -58.577157 -2.480944 10.352123 16.003487 -33.459040 -1.891557 7.283902 -4.621317 -10.174521 31.237431 0.239900 1.326903 56.155259 2.807722 14.508909 -21.394653 29.220152 -9.355965 -0.150948 4.450269 -5.976279 
0.169295 0.414801 0.996167 3.970361 0.719500 84.814060 -0.995103 -0.851413 2.996798 -2.705233 -7.613300 7.919592 2.984142 9.117389 -15.789989 0.000000 -0.000000 0.000000 5.600770 -0.336239 -0.258124 -0.286297 -2.283706 14.457324 -0.311405 -8.961407 -20.205190 0.000000 -0.000000 0.000000 0.108006 1.219133 10.809629 1.698977 -0.366600 1.108376 1.363587 -0.973881 2.058850 3.100229 14.753620 -11.138305 -3.370615 8.355063 7.667953 -32.492330 2.289021 -0.224623 -58.178809 -2.327631 10.268954 15.771447 -33.293012 -1.824685 7.299767 -4.552859 -9.832328 31.316136 0.216806 1.552624 56.171056 2.733566 14.673870 -21.255687 29.488577 -9.260745 -0.034956 4.482203 -5.777228 
0.169319 0.413760 0.996023 3.414666 0.781153 84.733044 -1.029512 -0.679044 3.272270 -2.562524 -7.441806 7.739052 3.159383 9.466670 -15.857735 0.000000 -0.000000 0.000000 5.510680 -0.463194 -0.233985 -0.170156 -2.249348 14.666134 -0.108712 -8.504830 -20.429496 0.000000 -0.000000 0.000000 0.334120 1.142087 10.819608 1.438634 -0.229220 0.887179 1.093638 -0.736074 2.031098 2.665882 15.206402 -11.290243 -3.589280 8.671085 7.773559 -32.455227 2.542578 -0.443336 -57.875877 -2.205474 10.064616 15.773195 -33.329235 -2.044096 7.297203 -4.523882 -9.789351 31.494880 0.021386 1.526982 56.448244 2.556614 14.776244 -21.093178 29.427860 -9.006152 -0.069693 4.416548 -5.276128 
0.169465 0.412725 0.996068 2.944345 0.764026 84.518329 -1.086409 -0.665483 3.665225 -2.545858 -7.416475 7.567847 3.323167 9.690873 -15.847347 0.000000 -0.000000 0.000000 5.387061 -0.487091 -0.065447 -0.124112 -2.277113 14.763941 -0.026953 -8.168559 -20.201938 0.000000 -0.000000 0.000000 0.456403 1.047763 10.929317 1.237708 -0.138059 0.799648 0.913953 -0.539704 1.991170 2.374852 15.570080 -11.425402 -3.709555 9.029182 7.980648 -32.492613 2.728837 -0.687408 -57.712281 -2.098539 9.932034 15.905217 -33.191616 -2.385245 7.074144 -4.638238 -9.803235 31.523605 0.018232 1.544826 56.654019 2.586384 14.809988 -20.824997 28.882547 -8.903007 0.046556 4.560466 -5.450423 
0.170345 0.411226 0.996177 2.626930 0.476206 84.068975 -1.578051 -0.580055 4.267824 -2.353583 -7.596649 7.580716 3.499253 10.048515 -16.007276 0.000000 -0.000000 0.000000 5.051597 -0.449944 0.427336 -0.159855 -2.196978 14.840139 -0.117050 -8.252895 -19.671711 0.000000 -0.000000 0.000000 0.360445 1.002480 11.102432 0.978875 0.006655 0.942269 0.843261 -0.449910 2.078979 2.074155 15.719495 -11.603824 -3.912885 9.301672 7.841593 -32.556670 2.711097 -0.762761 -57.562971 -2.229497 9.728802 15.827584 -33.019294 -2.659184 7.355309 -4.762249 -9.676909 31.521679 0.086785 1.522923 56.724067 2.557557 14.822572 -20.644367 28.518480 -9.004778 0.032478 4.501347 -5.102048 
0.169893 0.410583 0.995899 2.590986 0.439911 83.831092 -1.521386 -0.469308 4.386978 -2.511777 -7.653412 7.931076 3.550206 10.038869 -16.200652 0.000000 -0.000000 0.000000 5.150569 -0.626423 0.593127 -0.244530 -1.984742 15.016465 -0.198001 -8.404953 -19.569353 0.000000 -0.000000 0.000000 0.364736 1.040406 11.336798 0.833096 0.017388 0.797627 0.754493 -0.496593 2.097707 1.864887 15.726045 -11.633415 -3.860469 9.403209 7.992450 -32.354956 2.714912 -0.776044 -57.595239 -2.278217 9.589428 15.762844 -33.013012 -2.637402 8.072835 -4.624837 -9.672433 31.496526 0.060008 1.490051 56.801513 2.328873 14.872915 -20.340278 28.299285 -8.687288 -0.354255 4.491148 -4.953897 
0.169873 0.410002 0.995778 2.735098 0.602164 83.695991 -1.447244 -0.607354 4.486980 -2.375098 -7.814786 8.067410 3.553226 10.181113 -16.379083 0.000000 -0.000000 0.000000 5.467630 -0.452988 0.785925 -0.374654 -2.078116 14.990609 -0.248395 -8.646607 -19.615620 0.000000 -0.000000 0.000000 0.630832 0.911356 11.347265 0.766888 0.002338 0.849319 0.636756 -0.541533 2.098882 1.791953 15.801779 -11.588487 -3.887899 9.592951 7.995641 -32.457211 2.702737 -0.740550 -57.514465 -2.409190 9.521628 15.771783 -33.061004 -2.833192 8.013738 -4.643342 -9.627022 31.462706 0.054275 1.362180 56.817074 2.121804 14.845365 -20.344311 28.001342 -8.552581 -0.258215 4.516006 -4.699014 
0.171118 0.409536 0.995593 3.266533 0.294218 83.465391 -2.047753 -0.893598 4.571864 -2.223964 -8.133537 8.411904 3.726705 10.520087 -16.418979 0.000000 -0.000000 0.000000 5.068319 -0.292997 1.352175 -0.291823 -2.232721 14.586606 -0.399046 -9.285080 -19.499241 0.000000 -0.000000 0.000000 0.510134 0.675611 11.505595 0.653494 -0.177715 0.764235 0.538095 -0.648779 2.217263 1.699011 15.733425 -11.521944 -3.870540 9.784962 8.090611 -32.443347 2.645061 -0.660146 -57.578259 -2.441619 9.627033 15.770295 -33.076983 -2.532314 7.358116 -4.806589 -9.928539 31.249752 -0.035906 1.262359 56.906103 1.974767 14.914141 -20.226998 27.762936 -8.460201 0.173125 4.425709 -4.829680 
0.170969 0.409444 0.995517 3.418493 0.380263 83.473258 -1.898458 -0.878000 4.306818 -2.375486 -8.199393 8.912786 3.629141 10.434490 -16.728797 0.000000 -0.000000 0.000000 5.079376 -0.499257 1.390459 -0.179889 -2.271837 14.520355 -0.315224 -9.160631 -19.510199 0.000000 -0.000000 0.000000 0.656739 0.698135 11.493883 0.649815 -0.227478 0.707179 0.482730 -0.738373 2.211692 1.714407 15.579558 -11.340585 -3.869284 9.880648 8.088537 -32.604083 2.715120 -0.631384 -57.569966 -2.455338 9.639111 15.732757 -33.219619 -2.523603 7.750691 -4.770238 -9.912671 31.206932 -0.159624 1.262799 56.742926 1.858288 14.793878 -20.002712 27.603310 -8.375564 -0.293019 4.484580 -4.958446 
0.170506 0.409433 0.995363 3.468142 0.432206 83.519506 -1.695097 -0.902347 4.099860 -2.594165 -8.115449 9.186981 3.537801 10.329873 -16.795315 0.000000 -0.000000 0.000000 5.228996 -0.459639 1.329588 -0.237006 -2.252558 14.543266 -0.402320 -9.161333 -19.453444 0.000000 -0.000000 0.000000 0.657443 0.784625 11.498566 0.663826 -0.124226 0.594887 0.464999 -0.757263 2.269112 1.811844 15.494804 -11.268959 -3.747763 9.748924 8.170134 -32.561388 2.756604 -0.607147 -57.732490 -2.452742 9.786030 15.762709 -33.478349 -2.370013 7.734122 -4.625425 -10.003130 31.208018 -0.342340 1.273844 56.523839 1.754400 14.703940 -19.801846 27.595299 -8.157589 -0.273422 4.417131 -5.008617 
